# xmcd
#
# Track frame offsets: 
#        150
#        21865
#        43789
#        67884
#        91948
#        113431
#        141016
#        161070
#        181884
#        204588
#        228743
#        250248
#
# Disc length: 3633 seconds
#
# Revision: 0
# Processed by: cddbd v1.5.2PL0 Copyright (c) Steve Scherf et al.
# Submitted via: ExactAudioCopy v1.2
#
DISCID=9c0e2f0c
DTITLE=Ms. Jody - Thunder Under Yonder
DYEAR=2017
DGENRE=Blues
TTITLE0=I'm so Confused
TTITLE1=Power Stroke
TTITLE2=Ms. Jody's Energizer Slide
TTITLE3=Another Other Woman
TTITLE4=Stir It Up
TTITLE5=Booty Strut
TTITLE6=Let It Flow
TTITLE7=Party
TTITLE8=I Got That Thunder Under Yonder
TTITLE9=Where I Come From
TTITLE10=I Had to Lie
TTITLE11=You're Letting a Good Man's Lovin' Go to Waste
EXTD=
EXTT0=
EXTT1=
EXTT2=
EXTT3=
EXTT4=
EXTT5=
EXTT6=
EXTT7=
EXTT8=
EXTT9=
EXTT10=
EXTT11=
PLAYORDER=
